<!DOCTYPE svg PUBLIC "-//W3C//DTD SVG 1.1//EN" "http://www.w3.org/Graphics/SVG/1.1/DTD/svg11.dtd">
<!-- Uploaded to: SVG Repo, www.svgrepo.com, Transformed by: SVG Repo Mixer Tools -->
<svg fill="#ffffff" xmlns="http://www.w3.org/2000/svg" width="64px" height="64px" viewBox="0 0 100 100" xml:space="preserve" stroke="#ffffff">
<g id="SVGRepo_bgCarrier" stroke-width="0"/>
<g id="SVGRepo_tracerCarrier" stroke-linecap="round" stroke-linejoin="round"/>
<g id="SVGRepo_iconCarrier"> <g> <g> <path d="M32,20h-8c-2.2,0-4,1.8-4,4v8c0,2.2,1.8,4,4,4h8c2.2,0,4-1.8,4-4v-8C36,21.8,34.2,20,32,20z"/> </g> <g> <path d="M54,20h-8c-2.2,0-4,1.8-4,4v8c0,2.2,1.8,4,4,4h8c2.2,0,4-1.8,4-4v-8C58,21.8,56.2,20,54,20z"/> </g> <g> <path d="M76,20h-8c-2.2,0-4,1.8-4,4v8c0,2.2,1.8,4,4,4h8c2.2,0,4-1.8,4-4v-8C80,21.8,78.2,20,76,20z"/> </g> <g> <path d="M32,42h-8c-2.2,0-4,1.8-4,4v8c0,2.2,1.8,4,4,4h8c2.2,0,4-1.8,4-4v-8C36,43.8,34.2,42,32,42z"/> </g> <g> <path d="M54,42h-8c-2.2,0-4,1.8-4,4v8c0,2.2,1.8,4,4,4h8c2.2,0,4-1.8,4-4v-8C58,43.8,56.2,42,54,42z"/> </g> <g> <path d="M76,42h-8c-2.2,0-4,1.8-4,4v8c0,2.2,1.8,4,4,4h8c2.2,0,4-1.8,4-4v-8C80,43.8,78.2,42,76,42z"/> </g> <g> <path d="M32,64h-8c-2.2,0-4,1.8-4,4v8c0,2.2,1.8,4,4,4h8c2.2,0,4-1.8,4-4v-8C36,65.8,34.2,64,32,64z"/> </g> <g> <path d="M54,64h-8c-2.2,0-4,1.8-4,4v8c0,2.2,1.8,4,4,4h8c2.2,0,4-1.8,4-4v-8C58,65.8,56.2,64,54,64z"/> </g> <g> <path d="M76,64h-8c-2.2,0-4,1.8-4,4v8c0,2.2,1.8,4,4,4h8c2.2,0,4-1.8,4-4v-8C80,65.8,78.2,64,76,64z"/> </g> </g> </g>
</svg>